<svg width="25" height="24" viewBox="0 0 25 24" fill="none" xmlns="http://www.w3.org/2000/svg">
<path d="M12.5 8.75C10.7051 8.75 9.25 10.2051 9.25 12C9.25 13.7949 10.7051 15.25 12.5 15.25C14.2949 15.25 15.75 13.7949 15.75 12C15.75 10.2051 14.2949 8.75 12.5 8.75Z" fill="#005680"/>
<path fill-rule="evenodd" clip-rule="evenodd" d="M7.26973 3.08152C10.7179 2.69614 14.2826 2.69614 17.7307 3.08152C19.6291 3.29369 21.1603 4.78947 21.3831 6.69452C21.7954 10.2195 21.7954 13.7805 21.3831 17.3055C21.1603 19.2106 19.6291 20.7064 17.7307 20.9185C14.2826 21.3039 10.7179 21.3039 7.26973 20.9185C5.37133 20.7064 3.84014 19.2106 3.61732 17.3055C3.20504 13.7805 3.20504 10.2195 3.61732 6.69452C3.84014 4.78947 5.37133 3.29369 7.26973 3.08152ZM17.5002 6.00005C16.9479 6.00005 16.5002 6.44777 16.5002 7.00005C16.5002 7.55233 16.9479 8.00005 17.5002 8.00005C18.0525 8.00005 18.5002 7.55233 18.5002 7.00005C18.5002 6.44777 18.0525 6.00005 17.5002 6.00005ZM7.75019 12C7.75019 9.3767 9.87683 7.25005 12.5002 7.25005C15.1236 7.25005 17.2502 9.3767 17.2502 12C17.2502 14.6234 15.1236 16.75 12.5002 16.75C9.87683 16.75 7.75019 14.6234 7.75019 12Z" fill="#005680"/>
</svg>
