<svg width="25" height="24" viewBox="0 0 25 24" fill="none" xmlns="http://www.w3.org/2000/svg">
<path d="M22.3097 6.22724C22.3677 6.14647 22.2821 6.04218 22.1894 6.07811C21.5307 6.33344 20.8422 6.50571 20.14 6.5906C20.9219 6.12348 21.5253 5.4124 21.8599 4.57053C21.8939 4.48477 21.8003 4.40819 21.7195 4.4528C20.9928 4.85414 20.209 5.14313 19.3949 5.30957C19.3608 5.31654 19.3257 5.30494 19.3018 5.27969C18.6908 4.63502 17.8865 4.20578 17.0098 4.05745C16.1146 3.90601 15.1945 4.05596 14.3938 4.48379C13.593 4.91162 12.9569 5.59313 12.5852 6.42144C12.2318 7.209 12.1365 8.08691 12.3108 8.93003C12.3243 8.99545 12.2731 9.05721 12.2064 9.05307C10.6224 8.95469 9.07469 8.53336 7.65868 7.81446C6.24627 7.09739 4.99554 6.09983 3.98267 4.8833C3.93772 4.82931 3.85252 4.83629 3.81976 4.89845C3.5046 5.49651 3.33958 6.16311 3.34003 6.8406C3.33875 7.51498 3.50424 8.17922 3.82178 8.77416C4.13932 9.36911 4.59905 9.87631 5.16003 10.2506C4.5651 10.2344 3.98178 10.0873 3.45128 9.82067C3.38291 9.78631 3.3009 9.83524 3.30446 9.91167C3.34583 10.8009 3.67228 11.6936 4.23734 12.3786C4.83866 13.1074 5.67328 13.6062 6.60003 13.7906C6.24328 13.8992 5.8729 13.9564 5.50003 13.9606C5.29709 13.9582 5.09454 13.9433 4.89356 13.9158C4.81904 13.9056 4.7582 13.9764 4.78428 14.0469C5.0607 14.7944 5.54902 15.4467 6.1911 15.9228C6.87755 16.4318 7.7056 16.7142 8.56003 16.7306C7.11723 17.8659 5.33591 18.4855 3.50003 18.4906C3.31138 18.4912 3.12282 18.4851 2.93471 18.4723C2.8287 18.4651 2.77995 18.6063 2.87132 18.6605C4.66009 19.7221 6.70462 20.2831 8.79003 20.2806C10.3297 20.2966 11.8571 20.0056 13.2831 19.4247C14.7091 18.8437 16.005 17.9845 17.0952 16.8971C18.1854 15.8097 19.048 14.516 19.6326 13.0915C20.2171 11.667 20.512 10.1403 20.5 8.6006V8.12077C20.5 8.0892 20.5149 8.05951 20.5401 8.04048C21.2184 7.52834 21.8149 6.91691 22.3097 6.22724Z" fill="#005680"/>
</svg>
