<svg width="25" height="24" viewBox="0 0 25 24" fill="none" xmlns="http://www.w3.org/2000/svg">
<path fill-rule="evenodd" clip-rule="evenodd" d="M7.489 4.89055C10.8247 4.62958 14.1756 4.62958 17.5113 4.89055L19.752 5.06585C21.0001 5.16349 22.0211 6.09889 22.2274 7.33366C22.7436 10.4231 22.7436 13.5769 22.2274 16.6664C22.0211 17.9011 21.0001 18.8365 19.752 18.9342L17.5113 19.1095C14.1756 19.3704 10.8247 19.3704 7.489 19.1095L5.2483 18.9342C4.00023 18.8365 2.97921 17.9011 2.7729 16.6664C2.25669 13.5769 2.25669 10.4231 2.7729 7.33366C2.97921 6.09889 4.00023 5.16349 5.2483 5.06585L7.489 4.89055ZM10.5001 14.4701V9.52989C10.5001 9.2967 10.7545 9.15266 10.9544 9.27264L15.0714 11.7428C15.2656 11.8593 15.2656 12.1407 15.0714 12.2572L10.9544 14.7274C10.7545 14.8474 10.5001 14.7033 10.5001 14.4701Z" fill="#005680"/>
</svg>
